<?xml version="1.0" encoding="utf-8"?>
<!-- Generator: Adobe Illustrator 24.1.0, SVG Export Plug-In . SVG Version: 6.00 Build 0)  -->
<svg version="1.1" id="Capa_1" xmlns="http://www.w3.org/2000/svg" xmlns:xlink="http://www.w3.org/1999/xlink" x="0px" y="0px"
	 viewBox="0 0 2091.2 1295" style="enable-background:new 0 0 2091.2 1295;" xml:space="preserve">
<style type="text/css">
	.st0{clip-path:url(#SVGID_2_);}
	.st1{fill:#214035;}
	.st2{fill:url(#SVGID_3_);}
	.st3{fill:url(#SVGID_4_);}
	.st4{fill:url(#SVGID_5_);}
	.st5{fill:url(#SVGID_6_);}
	.st6{opacity:0.65;}
	.st7{fill:#F28A2E;}
</style>
<g id="Capa_2_1_">
	<g id="Capa_1-2">
		<g>
			<defs>
				<rect id="SVGID_1_" x="84.6" width="1920" height="1080"/>
			</defs>
			<clipPath id="SVGID_2_">
				<use xlink:href="#SVGID_1_"  style="overflow:visible;"/>
			</clipPath>
			<g class="st0">
				<rect x="85.1" y="0.5" class="st1" width="1919" height="1079"/>
				<path class="st1" d="M2003.6,1v1078H85.6V1H2003.6 M2004.6,0H84.6v1080h1920V0z"/>
				
					<linearGradient id="SVGID_3_" gradientUnits="userSpaceOnUse" x1="520.62" y1="222.3868" x2="949.8398" y2="225.5868" gradientTransform="matrix(6.123234e-17 1 1 -6.123234e-17 821.1 343.5)">
					<stop  offset="0" style="stop-color:#F28A2E"/>
					<stop  offset="1.000000e-02" style="stop-color:#E7862E"/>
					<stop  offset="3.000000e-02" style="stop-color:#BE7830"/>
					<stop  offset="5.000000e-02" style="stop-color:#986A31"/>
					<stop  offset="8.000000e-02" style="stop-color:#785F32"/>
					<stop  offset="0.11" style="stop-color:#5C5533"/>
					<stop  offset="0.15" style="stop-color:#464D34"/>
					<stop  offset="0.19" style="stop-color:#354734"/>
					<stop  offset="0.24" style="stop-color:#2A4335"/>
					<stop  offset="0.31" style="stop-color:#234135"/>
					<stop  offset="0.5" style="stop-color:#214035"/>
					<stop  offset="0.87" style="stop-color:#214035"/>
				</linearGradient>
				<ellipse class="st2" cx="1045.1" cy="1080.5" rx="960.5" ry="214.5"/>
				
					<linearGradient id="SVGID_4_" gradientUnits="userSpaceOnUse" x1="313.9699" y1="1103.6998" x2="96.5899" y2="1243.4999" gradientTransform="matrix(1 0 0 -1 0 1296)">
					<stop  offset="0" style="stop-color:#F28A2E"/>
					<stop  offset="1.000000e-02" style="stop-color:#E7862E"/>
					<stop  offset="6.000000e-02" style="stop-color:#BE7830"/>
					<stop  offset="0.11" style="stop-color:#986A31"/>
					<stop  offset="0.16" style="stop-color:#785F32"/>
					<stop  offset="0.22" style="stop-color:#5C5533"/>
					<stop  offset="0.29" style="stop-color:#464D34"/>
					<stop  offset="0.37" style="stop-color:#354734"/>
					<stop  offset="0.47" style="stop-color:#2A4335"/>
					<stop  offset="0.61" style="stop-color:#234135"/>
					<stop  offset="1" style="stop-color:#214035"/>
				</linearGradient>
				<circle class="st3" cx="210.1" cy="125.5" r="125.5"/>
				
					<linearGradient id="SVGID_5_" gradientUnits="userSpaceOnUse" x1="367.5481" y1="964.5571" x2="276.6181" y2="1023.0371" gradientTransform="matrix(1 0 0 -1 0 1296)">
					<stop  offset="0" style="stop-color:#F28A2E"/>
					<stop  offset="1.000000e-02" style="stop-color:#E7862E"/>
					<stop  offset="6.000000e-02" style="stop-color:#BE7830"/>
					<stop  offset="0.11" style="stop-color:#986A31"/>
					<stop  offset="0.16" style="stop-color:#785F32"/>
					<stop  offset="0.22" style="stop-color:#5C5533"/>
					<stop  offset="0.29" style="stop-color:#464D34"/>
					<stop  offset="0.37" style="stop-color:#354734"/>
					<stop  offset="0.47" style="stop-color:#2A4335"/>
					<stop  offset="0.61" style="stop-color:#234135"/>
					<stop  offset="1" style="stop-color:#214035"/>
				</linearGradient>
				<circle class="st4" cx="324.1" cy="303.5" r="52.5"/>
				
					<linearGradient id="SVGID_6_" gradientUnits="userSpaceOnUse" x1="492.0804" y1="906.9707" x2="436.6605" y2="942.6107" gradientTransform="matrix(1 0 0 -1 0 1296)">
					<stop  offset="0" style="stop-color:#F28A2E"/>
					<stop  offset="1.000000e-02" style="stop-color:#E7862E"/>
					<stop  offset="6.000000e-02" style="stop-color:#BE7830"/>
					<stop  offset="0.11" style="stop-color:#986A31"/>
					<stop  offset="0.16" style="stop-color:#785F32"/>
					<stop  offset="0.22" style="stop-color:#5C5533"/>
					<stop  offset="0.29" style="stop-color:#464D34"/>
					<stop  offset="0.37" style="stop-color:#354734"/>
					<stop  offset="0.47" style="stop-color:#2A4335"/>
					<stop  offset="0.61" style="stop-color:#234135"/>
					<stop  offset="1" style="stop-color:#214035"/>
				</linearGradient>
				<circle class="st5" cx="465.6" cy="372" r="32"/>
				<g class="st6">
					<path class="st7" d="M1045.6,827.4c-91.7,0.1-183.3,2.7-274.9,7.8c-11.4,0.7-22.9,1.4-34.3,2.1c-11.4,0.7-22.9,1.5-34.3,2.4
						c-22.9,1.7-45.7,3.6-68.5,5.7c-45.6,4.2-91.2,9.2-136.6,15s-90.7,12.9-135.8,21c-45,8.3-89.9,17.8-134.1,29.4
						c-22.1,5.8-44.1,12.2-65.8,19.4c-21.7,7.1-43,15.3-63.9,24.5c-10.4,4.7-20.6,9.7-30.5,15.3c-9.9,5.5-19.4,11.6-28.4,18.5
						c-8.9,6.9-17.2,14.5-23.5,23.4c-1.6,2.2-3.1,4.5-4.4,6.9c-1.3,2.4-2.4,4.8-3.4,7.3c-0.9,2.5-1.6,5-2.1,7.6
						c-0.5,2.6-0.7,5.2-0.7,7.8c0,10.5,4.3,20.8,10.8,29.5s14.8,16.4,23.7,23.1c9,6.7,18.6,12.8,28.5,18.1
						c9.9,5.4,20.2,10.4,30.5,14.9c20.9,9,42.2,17,63.9,23.8c21.7,7,43.7,13.1,65.8,18.8c44.3,11.2,89.1,20.3,134.1,28.2
						s90.4,14.3,135.8,19.9c90.8,11.3,182.1,18.7,273.5,23.7s183,7.3,274.5,7.3s183.1-2.2,274.5-7.2s182.7-12.4,273.5-23.7
						c45.4-5.7,90.7-12.1,135.8-19.9s89.9-16.9,134.2-28.2c22.1-5.6,44.1-11.8,65.8-18.8c21.7-6.9,43.1-14.8,64-23.9
						c10.4-4.6,20.6-9.5,30.5-14.9c9.9-5.4,19.4-11.4,28.5-18.1c8.9-6.8,17.2-14.3,23.7-23.1c6.5-8.8,10.8-19,10.9-29.5
						c0-2.6-0.3-5.3-0.7-7.8c-0.5-2.6-1.2-5.2-2.1-7.7c-1-2.5-2.1-5-3.4-7.3c-1.3-2.4-2.8-4.7-4.4-6.9c-6.4-8.9-14.7-16.6-23.6-23.4
						c-9-6.8-18.5-13-28.4-18.5c-9.9-5.5-20.1-10.6-30.5-15.3c-20.9-9.3-42.2-17.4-63.9-24.5c-21.7-7.2-43.7-13.6-65.8-19.4
						c-44.3-11.7-89.1-21.2-134.1-29.4s-90.4-15.2-135.8-21.1s-91-10.8-136.7-15s-91.3-7.6-137.1-10.1
						C1229,830,1137.3,827.4,1045.6,827.4z M1045.6,826.6c91.7,0,183.3,2.5,274.9,7.5c91.5,5.1,183,12.9,273.9,24.4
						c45.5,5.8,90.8,12.5,136,20.5s90.1,17.4,134.5,28.8c22.2,5.7,44.3,12,66.1,19.1c21.8,7,43.3,15.1,64.3,24.3
						c10.5,4.7,20.8,9.7,30.9,15.3c10.1,5.5,19.8,11.7,29,18.6c4.6,3.5,9,7.2,13.1,11.2c4.2,4,8,8.3,11.4,13
						c1.7,2.3,3.3,4.8,4.7,7.3c1.4,2.5,2.6,5.2,3.7,7.9c1,2.7,1.8,5.5,2.4,8.3c1.1,5.7,1.1,11.6,0,17.3c-0.6,2.8-1.4,5.6-2.4,8.3
						c-1,2.7-2.3,5.3-3.7,7.9c-1.4,2.5-3,4.9-4.7,7.3c-3.4,4.7-7.2,9-11.4,13c-4.2,4-8.5,7.7-13.1,11.2c-9.2,6.9-18.9,13.1-29,18.6
						c-10,5.6-20.4,10.6-30.9,15.3c-21,9.2-42.5,17.4-64.3,24.4c-21.8,7.1-43.9,13.4-66.1,19.2c-44.4,11.5-89.3,20.8-134.5,28.9
						s-90.5,14.8-136,20.6c-91,11.5-182.4,19.3-274,24.5s-183.3,7.5-274.9,7.6c-91.7,0-183.4-2.4-274.9-7.6s-183-13-273.9-24.5
						c-45.5-5.8-90.9-12.5-136-20.6s-90.1-17.4-134.5-28.9c-22.2-5.8-44.3-12.1-66.1-19.2c-21.8-7-43.3-15.2-64.3-24.4
						c-10.5-4.7-20.8-9.7-30.8-15.3c-10.1-5.5-19.8-11.7-29-18.7c-4.6-3.5-9-7.2-13.1-11.2c-4.2-4-8-8.3-11.4-13
						c-1.7-2.3-3.3-4.8-4.7-7.3c-1.4-2.5-2.6-5.2-3.7-7.9c-1-2.7-1.8-5.5-2.4-8.3c-0.5-2.9-0.8-5.8-0.8-8.7c0-2.9,0.3-5.8,0.8-8.7
						c0.6-2.8,1.4-5.6,2.4-8.3c1-2.7,2.3-5.3,3.7-7.9c1.4-2.5,3-4.9,4.7-7.3c3.4-4.7,7.2-9,11.4-13c4.1-4,8.5-7.7,13.1-11.2
						c9.2-6.9,18.9-13.1,29-18.6c10-5.6,20.4-10.6,30.8-15.3c21-9.2,42.5-17.3,64.3-24.3c21.8-7.1,43.9-13.4,66.1-19.1
						c44.4-11.5,89.4-20.8,134.5-28.8s90.5-14.8,136-20.5c91-11.5,182.4-19.3,273.9-24.4S953.9,826.6,1045.6,826.6L1045.6,826.6z"/>
				</g>
			</g>
		</g>
	</g>
</g>
</svg>
