<svg xmlns="http://www.w3.org/2000/svg" viewBox="0 0 496 496"><defs><style>.cls-1{fill:#fff;}</style></defs><g id="Capa_2" data-name="Capa 2"><g id="Capa_1-2" data-name="Capa 1"><g id="logoPos"><path d="M496,1.93V496H1.93V1.93Zm-2.35,2.62H4.63v489h489Z"/><path class="cls-1" d="M496,1.93H1.93V496c-.64-2.89-1.85-5.79-1.85-8.68Q-.06,243.66,0,0,243.66,0,487.32.08C490.21.08,493.11,1.29,496,1.93Z"/><path class="cls-1" d="M493.65,4.55v489H4.63V4.55ZM440.36,243.32c-.2-28.89-9.14-62.66-28.25-93.42-2.13-3.42-7.27-6.81-11.11-6.94-7.54-.24-9.25,7.42-4,16.22,23.5,39.55,31.11,81.82,21.86,127-18.48,90.25-105.27,150-197.93,136.32C130.6,409.14,65.09,324,74.82,232.67c13.65-128.09,153.88-198,263.94-131.56,1.92,1.16,3.92,3.32,5.78,3.21,3.74-.22,9.07-.57,10.65-2.93s.47-7.71-.95-11.12c-.93-2.23-4.37-3.59-6.88-5-69.74-38.7-139.81-38.88-205.94,5.6-66.8,44.94-94.77,110.6-82.71,190.37C73.82,381.16,164.09,450,265.54,441.71,363.66,433.7,440.26,350,440.36,243.32Zm-121.6-80.93,2,2.6q-25.62,24.49-51.27,49c-4.71,4.47-7.82,9.55-2.51,14.86s10.61,3.21,15.66-2c20.86-21.4,42.17-42.37,62.84-63.95,3.2-3.34,3.92-9.05,5.78-13.66-4.7-1.83-9.4-5.22-14.12-5.25q-90.65-.54-181.29,0c-4.7,0-9.38,3.55-14.06,5.44,1.93,4.65,2.71,10.44,6,13.77,37.37,38.08,75.11,75.79,112.79,113.57q36.77,36.89,73.62,73.67c4.57,4.57,9.71,7.32,14.93,1.68,4.65-5,2.46-10.05-2-14.33-1.39-1.33-2.73-2.72-4.09-4.09q-81.33-81.63-162.65-163.26c-2.31-2.32-4.48-4.78-7.55-8.06ZM154,354.1c1.5-1,4.65-2.58,7-4.93,20.93-20.88,41.69-41.94,62.57-62.86,4.55-4.55,7.61-9.72,2.52-15.05-5.62-5.88-10.93-2.4-15.68,2.42Q179.27,305.27,148,336.75a18.32,18.32,0,0,0-4,5.36C141.45,348.19,145.45,354,154,354.1Z"/><path d="M440.36,243.32c-.1,106.64-76.7,190.38-174.82,198.39C164.09,450,73.82,381.16,58.71,281.26,46.65,201.49,74.62,135.83,141.42,90.89c66.13-44.48,136.2-44.3,205.94-5.6,2.51,1.39,5.95,2.75,6.88,5,1.42,3.41,2.62,8.64.95,11.12s-6.91,2.71-10.65,2.93c-1.86.11-3.86-2-5.78-3.21C228.7,34.68,88.47,104.58,74.82,232.67,65.09,324,130.6,409.14,220.91,422.49c92.66,13.71,179.45-46.07,197.93-136.32,9.25-45.17,1.64-87.44-21.86-127-5.23-8.8-3.52-16.46,4-16.22,3.84.13,9,3.52,11.11,6.94C431.22,180.66,440.16,214.43,440.36,243.32Z"/><path d="M318.76,162.39H172.87c3.07,3.28,5.24,5.74,7.55,8.06q81.32,81.65,162.65,163.26c1.36,1.37,2.7,2.76,4.09,4.09,4.44,4.28,6.63,9.31,2,14.33-5.22,5.64-10.36,2.89-14.93-1.68q-36.79-36.84-73.62-73.67C222.91,239,185.17,201.29,147.8,163.21c-3.28-3.33-4.06-9.12-6-13.77,4.68-1.89,9.36-5.41,14.06-5.44q90.65-.56,181.29,0c4.72,0,9.42,3.42,14.12,5.25-1.86,4.61-2.58,10.32-5.78,13.66-20.67,21.58-42,42.55-62.84,63.95-5.05,5.19-10.33,7.32-15.66,2s-2.2-10.39,2.51-14.86q25.73-24.4,51.27-49Z"/><path d="M154,354.1c-8.53-.11-12.53-5.91-9.91-12a18.32,18.32,0,0,1,4-5.36q31.14-31.58,62.36-63.07c4.75-4.82,10.06-8.3,15.68-2.42,5.09,5.33,2,10.5-2.52,15.05-20.88,20.92-41.64,42-62.57,62.86C158.63,351.52,155.48,353.06,154,354.1Z"/></g></g></g></svg>