<svg xmlns="http://www.w3.org/2000/svg" viewBox="0 0 384.38 385.52"><defs><style>.cls-1{fill:#f2f2f2;}</style></defs><g id="Capa_2" data-name="Capa 2"><g id="Capa_1-2" data-name="Capa 1"><path class="cls-1" d="M356.13,93c19.11,30.76,28.05,64.53,28.25,93.42-.1,106.64-76.7,190.38-174.82,198.39C108.11,393.14,17.84,324.3,2.73,224.4-9.33,144.63,18.64,79,85.44,34c66.13-44.48,136.2-44.3,205.94-5.6,2.51,1.39,5.95,2.75,6.88,5,1.42,3.41,2.62,8.64.95,11.12s-6.91,2.71-10.65,2.93c-1.86.11-3.86-2.05-5.78-3.21C172.72-22.18,32.49,47.72,18.84,175.81,9.11,267.15,74.62,352.28,164.93,365.63c92.66,13.71,179.45-46.07,197.93-136.32,9.25-45.17,1.64-87.44-21.86-127-5.23-8.8-3.52-16.46,4-16.22C348.86,86.23,354,89.62,356.13,93Z"/><path class="cls-1" d="M291.18,280.94c4.44,4.28,6.63,9.31,2,14.33-5.22,5.64-10.36,2.89-14.93-1.68q-36.8-36.84-73.62-73.67c-37.68-37.78-75.42-75.49-112.79-113.57-3.28-3.33-4.06-9.12-6-13.77,4.68-1.89,9.36-5.41,14.06-5.44q90.64-.56,181.29,0c4.72,0,9.42,3.42,14.12,5.25-1.86,4.61-2.58,10.32-5.78,13.66-20.67,21.58-42,42.55-62.84,64-5.05,5.19-10.33,7.32-15.66,2s-2.2-10.39,2.51-14.86q25.72-24.41,51.27-49l-2-2.6H116.89c3.07,3.28,5.24,5.74,7.55,8.06q81.32,81.65,162.65,163.26C288.45,278.22,289.79,279.61,291.18,280.94Z"/><path class="cls-1" d="M170.09,214.4c5.09,5.33,2,10.5-2.52,15-20.88,20.92-41.64,42-62.57,62.86-2.35,2.35-5.5,3.89-7,4.93-8.53-.11-12.53-5.91-9.91-12a18.32,18.32,0,0,1,4-5.36q31.14-31.58,62.36-63.07C159.16,212,164.47,208.52,170.09,214.4Z"/></g></g></svg>